<?xml version="1.0" encoding="UTF-8" standalone="no"?>
<svg
   xmlns:dc="http://purl.org/dc/elements/1.1/"
   xmlns:cc="http://creativecommons.org/ns#"
   xmlns:rdf="http://www.w3.org/1999/02/22-rdf-syntax-ns#"
   xmlns:svg="http://www.w3.org/2000/svg"
   xmlns="http://www.w3.org/2000/svg"
   xmlns:sodipodi="http://sodipodi.sourceforge.net/DTD/sodipodi-0.dtd"
   xmlns:inkscape="http://www.inkscape.org/namespaces/inkscape"
   height="512"
   viewBox="0 0 24 24"
   width="512"
   version="1.1"
   id="svg6"
   sodipodi:docname="rotate_cw.svg"
   inkscape:version="1.0.1 (3bc2e813f5, 2020-09-07)">
  <metadata
     id="metadata12">
    <rdf:RDF>
      <cc:Work
         rdf:about="">
        <dc:format>image/svg+xml</dc:format>
        <dc:type
           rdf:resource="http://purl.org/dc/dcmitype/StillImage" />
      </cc:Work>
    </rdf:RDF>
  </metadata>
  <defs
     id="defs10" />
  <sodipodi:namedview
     pagecolor="#ffffff"
     bordercolor="#666666"
     borderopacity="1"
     objecttolerance="10"
     gridtolerance="10"
     guidetolerance="10"
     inkscape:pageopacity="0"
     inkscape:pageshadow="2"
     inkscape:window-width="1920"
     inkscape:window-height="1017"
     id="namedview8"
     showgrid="false"
     inkscape:zoom="25.043365"
     inkscape:cx="13.309889"
     inkscape:cy="10.143061"
     inkscape:window-x="-8"
     inkscape:window-y="-8"
     inkscape:window-maximized="1"
     inkscape:current-layer="svg6" />
  <path
     d="M0 0h24v24H0z"
     fill="none"
     id="path2" />
  <path
     d="m 7.075,13.935 -1.41,1.42 c -0.9,-1.16 -1.46,-2.5 -1.63,-3.89 h 2.02 c 0.14,0.87 0.49,1.72 1.02,2.47 z m -1.02,-4.47 h -2.02 c 0.17,-1.39 0.72,-2.73 1.62,-3.89 l 1.41,1.42 c -0.52,0.75 -0.87,1.59 -1.01,2.47 z m 1.01,-5.32 c 1.16,-0.9 2.51,-1.44 3.9,-1.61 v 2.03 c -0.87,0.15 -1.71,0.49 -2.46,1.03 z m 5.9,14.25 v 3.07 l -4.55,-4.55 4.55,-4.45 v 3.91 c 2.84,-0.48 5,-2.94 5,-5.91 0,-2.97 -2.16,-5.43 -5,-5.91 v -2.02 c 3.95,0.49 7,3.85 7,7.93 0,4.08 -3.05,7.44 -7,7.93 z"
     id="path4" />
</svg>
